<svg width="178" height="40" viewBox="0 0 178 40" fill="none" xmlns="http://www.w3.org/2000/svg">
<path d="M71.7373 16.7656H67.3822C67.3026 16.2022 67.1402 15.7017 66.8949 15.2642C66.6497 14.8201 66.3348 14.4422 65.9503 14.1307C65.5659 13.8191 65.1217 13.5805 64.618 13.4148C64.1208 13.2491 63.5806 13.1662 62.9972 13.1662C61.9432 13.1662 61.0252 13.428 60.243 13.9517C59.4608 14.4687 58.8542 15.2244 58.4234 16.2188C57.9925 17.2064 57.777 18.4062 57.777 19.8182C57.777 21.2699 57.9925 22.4896 58.4234 23.4773C58.8609 24.465 59.4707 25.2107 60.2529 25.7145C61.0351 26.2183 61.9399 26.4702 62.9674 26.4702C63.5441 26.4702 64.0777 26.3939 64.5682 26.2415C65.0654 26.089 65.5062 25.867 65.8907 25.5753C66.2752 25.277 66.5933 24.9157 66.8452 24.4915C67.1038 24.0672 67.2827 23.5833 67.3822 23.0398L71.7373 23.0597C71.6246 23.9943 71.3429 24.8958 70.8921 25.7642C70.448 26.6259 69.8481 27.3982 69.0924 28.081C68.3433 28.7571 67.4485 29.294 66.4077 29.6918C65.3736 30.0829 64.2037 30.2784 62.8978 30.2784C61.0815 30.2784 59.4574 29.8674 58.0256 29.0455C56.6004 28.2235 55.4735 27.0336 54.6449 25.4759C53.823 23.9181 53.412 22.0322 53.412 19.8182C53.412 17.5975 53.8296 15.7083 54.6648 14.1506C55.5001 12.5928 56.6336 11.4062 58.0654 10.5909C59.4972 9.76894 61.108 9.35795 62.8978 9.35795C64.0777 9.35795 65.1715 9.52367 66.179 9.85511C67.1932 10.1866 68.0914 10.6705 68.8736 11.3068C69.6558 11.9366 70.2922 12.7088 70.7827 13.6236C71.2799 14.5384 71.5981 15.5857 71.7373 16.7656ZM73.6251 30V14.7273H77.7316V17.392H77.8907C78.1691 16.4441 78.6365 15.7282 79.2927 15.2443C79.949 14.7538 80.7046 14.5085 81.5597 14.5085C81.7719 14.5085 82.0006 14.5218 82.2458 14.5483C82.4911 14.5748 82.7065 14.6113 82.8921 14.6577V18.4162C82.6933 18.3565 82.4182 18.3035 82.0669 18.2571C81.7155 18.2107 81.394 18.1875 81.1024 18.1875C80.4793 18.1875 79.9224 18.3234 79.4319 18.5952C78.948 18.8603 78.5635 19.2315 78.2785 19.7088C78.0001 20.1861 77.8609 20.7363 77.8609 21.3594V30H73.6251ZM87.042 35.7273C86.5051 35.7273 86.0013 35.6842 85.5307 35.598C85.0666 35.5185 84.6822 35.4157 84.3772 35.2898L85.3318 32.1278C85.829 32.2803 86.2764 32.3632 86.6741 32.3764C87.0785 32.3897 87.4265 32.2969 87.7182 32.098C88.0165 31.8991 88.2584 31.5611 88.444 31.0838L88.6926 30.4375L83.2139 14.7273H87.6684L90.8304 25.9432H90.9895L94.1812 14.7273H98.6656L92.7295 31.6506C92.4445 32.4725 92.0567 33.1884 91.5662 33.7983C91.0823 34.4148 90.4691 34.8887 89.7267 35.2202C88.9843 35.5582 88.0894 35.7273 87.042 35.7273ZM99.7132 35.7273V14.7273H103.889V17.2926H104.078C104.264 16.8816 104.532 16.464 104.884 16.0398C105.242 15.6089 105.706 15.2509 106.276 14.9659C106.852 14.6742 107.568 14.5284 108.423 14.5284C109.537 14.5284 110.565 14.8201 111.506 15.4034C112.447 15.9801 113.199 16.8518 113.763 18.0185C114.326 19.1785 114.608 20.6335 114.608 22.3835C114.608 24.0871 114.333 25.5256 113.783 26.6989C113.239 27.8655 112.497 28.7505 111.556 29.3537C110.621 29.9503 109.574 30.2486 108.413 30.2486C107.592 30.2486 106.892 30.1127 106.315 29.8409C105.745 29.5691 105.278 29.2277 104.913 28.8168C104.549 28.3991 104.271 27.9782 104.078 27.554H103.949V35.7273H99.7132ZM103.86 22.3636C103.86 23.2718 103.985 24.0639 104.237 24.7401C104.489 25.4162 104.854 25.9432 105.331 26.321C105.808 26.6922 106.388 26.8778 107.071 26.8778C107.761 26.8778 108.344 26.6889 108.821 26.3111C109.298 25.9266 109.66 25.3963 109.905 24.7202C110.157 24.0374 110.283 23.2519 110.283 22.3636C110.283 21.482 110.16 20.7064 109.915 20.0369C109.67 19.3674 109.308 18.8437 108.831 18.4659C108.354 18.0881 107.767 17.8991 107.071 17.8991C106.382 17.8991 105.798 18.0814 105.321 18.446C104.851 18.8106 104.489 19.3277 104.237 19.9972C103.985 20.6667 103.86 21.4555 103.86 22.3636ZM124.436 14.7273V17.9091H115.238V14.7273H124.436ZM117.326 11.0682H121.562V25.3068C121.562 25.6979 121.622 26.0028 121.741 26.2216C121.86 26.4337 122.026 26.5829 122.238 26.669C122.457 26.7552 122.709 26.7983 122.994 26.7983C123.193 26.7983 123.392 26.7817 123.59 26.7486C123.789 26.7088 123.942 26.679 124.048 26.6591L124.714 29.8111C124.502 29.8774 124.204 29.9536 123.819 30.0398C123.435 30.1326 122.967 30.1889 122.417 30.2088C121.396 30.2486 120.501 30.1127 119.732 29.8011C118.97 29.4896 118.377 29.0057 117.953 28.3494C117.528 27.6932 117.32 26.8646 117.326 25.8636V11.0682ZM132.811 30.2983C131.267 30.2983 129.931 29.9702 128.804 29.3139C127.684 28.651 126.819 27.7296 126.209 26.5497C125.599 25.3632 125.294 23.9877 125.294 22.4233C125.294 20.8456 125.599 19.4669 126.209 18.2869C126.819 17.1004 127.684 16.179 128.804 15.5227C129.931 14.8598 131.267 14.5284 132.811 14.5284C134.356 14.5284 135.688 14.8598 136.808 15.5227C137.935 16.179 138.804 17.1004 139.414 18.2869C140.023 19.4669 140.328 20.8456 140.328 22.4233C140.328 23.9877 140.023 25.3632 139.414 26.5497C138.804 27.7296 137.935 28.651 136.808 29.3139C135.688 29.9702 134.356 30.2983 132.811 30.2983ZM132.831 27.017C133.534 27.017 134.12 26.8182 134.591 26.4205C135.062 26.0161 135.416 25.4659 135.655 24.7699C135.9 24.0739 136.023 23.2817 136.023 22.3935C136.023 21.5052 135.9 20.7131 135.655 20.017C135.416 19.321 135.062 18.7708 134.591 18.3665C134.12 17.9621 133.534 17.7599 132.831 17.7599C132.122 17.7599 131.525 17.9621 131.041 18.3665C130.564 18.7708 130.203 19.321 129.958 20.017C129.719 20.7131 129.6 21.5052 129.6 22.3935C129.6 23.2817 129.719 24.0739 129.958 24.7699C130.203 25.4659 130.564 26.0161 131.041 26.4205C131.525 26.8182 132.122 27.017 132.831 27.017ZM149.728 22.9205H153.387L155.227 25.2869L157.036 27.3949L160.447 31.6705H156.43L154.083 28.7869L152.88 27.0767L149.728 22.9205ZM160.755 19.8182C160.755 22.0388 160.334 23.928 159.492 25.4858C158.657 27.0436 157.517 28.2334 156.072 29.0554C154.634 29.8707 153.016 30.2784 151.22 30.2784C149.41 30.2784 147.786 29.8674 146.348 29.0455C144.909 28.2235 143.772 27.0336 142.937 25.4759C142.102 23.9181 141.684 22.0322 141.684 19.8182C141.684 17.5975 142.102 15.7083 142.937 14.1506C143.772 12.5928 144.909 11.4062 146.348 10.5909C147.786 9.76894 149.41 9.35795 151.22 9.35795C153.016 9.35795 154.634 9.76894 156.072 10.5909C157.517 11.4062 158.657 12.5928 159.492 14.1506C160.334 15.7083 160.755 17.5975 160.755 19.8182ZM156.39 19.8182C156.39 18.3797 156.175 17.1667 155.744 16.179C155.32 15.1913 154.72 14.4422 153.944 13.9318C153.169 13.4214 152.26 13.1662 151.22 13.1662C150.179 13.1662 149.271 13.4214 148.495 13.9318C147.72 14.4422 147.116 15.1913 146.686 16.179C146.261 17.1667 146.049 18.3797 146.049 19.8182C146.049 21.2566 146.261 22.4697 146.686 23.4574C147.116 24.4451 147.72 25.1941 148.495 25.7045C149.271 26.215 150.179 26.4702 151.22 26.4702C152.26 26.4702 153.169 26.215 153.944 25.7045C154.72 25.1941 155.32 24.4451 155.744 23.4574C156.175 22.4697 156.39 21.2566 156.39 19.8182ZM169.646 30.2983C168.081 30.2983 166.735 29.9669 165.609 29.304C164.488 28.6345 163.627 27.7064 163.023 26.5199C162.427 25.3333 162.128 23.9678 162.128 22.4233C162.128 20.8589 162.43 19.4867 163.033 18.3068C163.643 17.1203 164.508 16.1955 165.628 15.5327C166.749 14.8632 168.081 14.5284 169.626 14.5284C170.958 14.5284 172.125 14.7704 173.126 15.2543C174.127 15.7382 174.919 16.4176 175.502 17.2926C176.085 18.1676 176.407 19.1951 176.467 20.375H172.469C172.357 19.6127 172.058 18.9995 171.574 18.5355C171.097 18.0649 170.471 17.8295 169.695 17.8295C169.039 17.8295 168.466 18.0085 167.975 18.3665C167.491 18.7178 167.113 19.2315 166.842 19.9077C166.57 20.5838 166.434 21.4025 166.434 22.3636C166.434 23.3381 166.566 24.1667 166.832 24.8494C167.103 25.5322 167.485 26.0526 167.975 26.4105C168.466 26.7685 169.039 26.9474 169.695 26.9474C170.179 26.9474 170.613 26.848 170.998 26.6491C171.389 26.4503 171.71 26.1619 171.962 25.7841C172.221 25.3996 172.39 24.9389 172.469 24.402H176.467C176.4 25.5687 176.082 26.5961 175.512 27.4844C174.949 28.366 174.17 29.0554 173.175 29.5526C172.181 30.0497 171.004 30.2983 169.646 30.2983Z" fill="white"/>
<path fill-rule="evenodd" clip-rule="evenodd" d="M19 39C29.4934 39 38 30.4934 38 20C38 9.50659 29.4934 1 19 1C8.50659 1 0 9.50659 0 20C0 30.4934 8.50659 39 19 39ZM29.4687 21.2848C28.9762 19.1893 27.0062 17.7101 24.5437 17.7101C21.7119 17.7101 19.4956 19.8056 19.4956 22.3942C19.4956 23.6268 19.9881 24.6129 20.7269 25.4758C15.3094 25.3525 11.0001 21.0383 11.0001 15.7379C11.0001 10.3143 15.5557 6 21.0962 6C24.5437 6 27.6218 7.47921 30.5768 10.8073C34.1903 15.3123 34.4474 20.7376 33.5894 23.8598C32.7313 26.982 29.468 31.3367 26.8126 32C27.0855 31.3632 27.3919 30.72 27.7015 30.0699C29.0338 27.2726 30.4256 24.3505 29.4687 21.2848Z" fill="white"/>
</svg>
