<svg width="132" height="51" viewBox="0 0 132 51" fill="none" xmlns="http://www.w3.org/2000/svg">
<path d="M1 49.1447L4.38427 39.5311C4.44258 39.3654 4.54348 39.2181 4.67683 39.1038L9.69175 34.8063C9.84766 34.6727 9.95867 34.4943 10.0097 34.2954L13.0732 22.3521C13.2389 21.7063 13.9782 21.4004 14.5518 21.7404L18.6268 24.156C18.7811 24.2475 18.9573 24.2958 19.1367 24.2958H22.6104C22.9935 24.2958 23.343 24.0769 23.5102 23.7322L27.7032 15.0856C27.7381 15.0138 27.7642 14.938 27.781 14.86L29.89 5.07507C30.1115 4.04736 31.5654 4.01369 31.8343 5.03004L35.2392 17.9025C35.2709 18.0222 35.3245 18.135 35.3973 18.2351L38.7901 22.8993C39.2423 23.5209 40.1975 23.4212 40.5115 22.7196L47.5347 7.03036C47.9353 6.13533 49.2509 6.29176 49.4305 7.25578L51.425 17.9615C51.4401 18.0426 51.4652 18.1215 51.4997 18.1964L57.0353 30.2229C57.3817 30.9754 58.4403 31.0046 58.8276 30.2724L66.4941 15.7808C66.7351 15.3253 67.2829 15.1275 67.7593 15.324L73.7141 17.7799C74.145 17.9576 74.6416 17.814 74.9112 17.4337L83.7922 4.90531C84.107 4.46129 84.7191 4.35052 85.1695 4.65608L95.5572 11.703C95.8737 11.9178 96.2851 11.9332 96.6168 11.7426L102.966 8.09437C103.035 8.05455 103.109 8.02318 103.185 8.00093L115.784 4.35014C116.266 4.21049 116.777 4.4496 116.978 4.90915L121.882 16.0941C122.224 16.8763 123.327 16.8964 123.698 16.1273L131 1" stroke="#193BB1" stroke-opacity="0.5" stroke-width="2" stroke-linecap="round" stroke-linejoin="round"/>
</svg>
