<svg width="55" height="52" viewBox="0 0 55 52" fill="none" xmlns="http://www.w3.org/2000/svg">
<path d="M35.6 21.8947C35.6 20.3895 36.815 19.1579 38.3 19.1579C39.785 19.1579 41 20.3895 41 21.8947C41 23.4 39.785 24.6316 38.3 24.6316C36.815 24.6316 35.6 23.4 35.6 21.8947ZM16.7 19.1579H30.2V13.6842H16.7V19.1579ZM54.5 15.0526V34.1284L46.886 36.7011L42.35 52H27.5V46.5263H22.1V52H7.25C7.25 52 0.5 28.8463 0.5 20.5263C0.5 12.2063 7.142 5.47368 15.35 5.47368H28.85C31.307 2.16211 35.222 0 39.65 0C40.3172 0.000143931 40.9741 0.167608 41.562 0.487467C42.1499 0.807326 42.6506 1.26965 43.0194 1.83322C43.3883 2.3968 43.6139 3.04412 43.6761 3.71751C43.7383 4.3909 43.6352 5.06943 43.376 5.69263C42.998 6.62316 42.674 7.69053 42.512 8.84L48.641 15.0526H54.5ZM49.1 20.5263H46.4L36.95 10.9474C36.95 9.16842 37.193 7.41684 37.652 5.72C35.033 6.40421 32.9 8.37474 32.009 10.9474H15.35C10.139 10.9474 5.9 15.2442 5.9 20.5263C5.9 25.6716 9.194 38.7263 11.3 46.5263H16.7V41.0526H32.9V46.5263H38.3L42.512 32.4316L49.1 30.1874V20.5263Z" fill="white"/>
</svg>
