<svg width="45" height="58" viewBox="0 0 45 58" fill="none" xmlns="http://www.w3.org/2000/svg">
<path d="M22.5 44.1905C21.0413 44.1905 19.6424 43.6085 18.6109 42.5726C17.5795 41.5367 17 40.1317 17 38.6667C17 35.6009 19.4475 33.1429 22.5 33.1429C23.9587 33.1429 25.3576 33.7248 26.3891 34.7607C27.4205 35.7967 28 37.2017 28 38.6667C28 40.1317 27.4205 41.5367 26.3891 42.5726C25.3576 43.6085 23.9587 44.1905 22.5 44.1905ZM39 52.4762V24.8571H6V52.4762H39ZM39 19.3333C40.4587 19.3333 41.8576 19.9153 42.8891 20.9512C43.9205 21.9871 44.5 23.3921 44.5 24.8571V52.4762C44.5 53.9412 43.9205 55.3462 42.8891 56.3821C41.8576 57.418 40.4587 58 39 58H6C4.54131 58 3.14236 57.418 2.11091 56.3821C1.07946 55.3462 0.5 53.9412 0.5 52.4762V24.8571C0.5 21.7914 2.9475 19.3333 6 19.3333H8.75V13.8095C8.75 10.147 10.1987 6.6345 12.7773 4.04472C15.3559 1.45493 18.8533 0 22.5 0C24.3057 0 26.0937 0.357194 27.7619 1.05119C29.4301 1.74518 30.9459 2.76238 32.2227 4.04472C33.4995 5.32705 34.5123 6.8494 35.2033 8.52485C35.8943 10.2003 36.25 11.996 36.25 13.8095V19.3333H39ZM22.5 5.52381C20.312 5.52381 18.2135 6.39677 16.6664 7.95064C15.1192 9.50451 14.25 11.612 14.25 13.8095V19.3333H30.75V13.8095C30.75 11.612 29.8808 9.50451 28.3336 7.95064C26.7865 6.39677 24.688 5.52381 22.5 5.52381Z" fill="white"/>
</svg>
