<svg width="73" height="64" viewBox="0 0 73 64" fill="none" xmlns="http://www.w3.org/2000/svg">
<g opacity="0.95">
<path opacity="0.95" d="M17.1277 62.5319L12.1935 53.9852C12.1171 53.8294 12.0774 53.6583 12.0774 53.4847C12.0774 53.3111 12.1171 53.14 12.1935 52.9842L17.6723 43.497C17.7687 43.3506 17.8979 43.2284 18.0496 43.1408C18.2013 43.0529 18.3714 43.0017 18.5464 42.9911H29.5018C29.6771 43.0017 29.8476 43.0529 29.9997 43.1408C30.1516 43.2284 30.2813 43.3503 30.3781 43.497L35.8569 52.9842C35.9343 53.1417 35.9747 53.3146 35.9747 53.4901C35.9747 53.6656 35.9343 53.8385 35.8569 53.996L30.3781 63.4832C30.2817 63.6266 30.1542 63.7464 30.0051 63.8336C29.8561 63.9208 29.689 63.9733 29.517 63.987H19.668C19.1615 63.9547 18.6692 63.8067 18.2288 63.5544C17.7885 63.3021 17.4118 62.9524 17.1277 62.5319ZM52.7067 43.0082L41.7922 24.1111C41.6594 23.9113 41.4824 23.7449 41.2748 23.6251C41.0671 23.5051 40.8346 23.4351 40.5951 23.4201H18.7659C18.5266 23.4351 18.294 23.5051 18.0863 23.6251C17.8786 23.7449 17.7016 23.9113 17.569 24.1111L6.65441 43.0169C6.54717 43.2315 6.49133 43.4679 6.49133 43.7079C6.49133 43.9478 6.54717 44.1843 6.65441 44.3989L9.85344 49.9445L15.4507 40.2571C15.6023 40.0243 15.8067 39.8303 16.0472 39.6913C16.2876 39.5522 16.5575 39.4715 16.8349 39.4561H31.2155C31.493 39.4715 31.7626 39.5522 32.0032 39.6913C32.2436 39.8303 32.448 40.0243 32.5996 40.2571L39.7921 52.713C39.9173 52.961 39.9826 53.235 39.9826 53.5127C39.9826 53.7906 39.9173 54.0646 39.7921 54.3126L34.1948 64H40.5888C40.8283 63.9852 41.0611 63.9147 41.2689 63.7946C41.4765 63.6741 41.6536 63.5073 41.7857 63.3068L52.7002 44.4032C52.8106 44.1876 52.8687 43.9489 52.8698 43.7066C52.8709 43.4642 52.8149 43.2249 52.7067 43.0082ZM72.5122 30.5028L55.77 1.49188C55.4865 1.0583 55.1048 0.697413 54.6562 0.438285C54.2073 0.179158 53.704 0.0290326 53.1868 0H19.6873C19.17 0.0290326 18.6667 0.179158 18.218 0.438285C17.7693 0.697413 17.3877 1.0583 17.104 1.49188L0.355376 30.5028C0.121888 30.9649 0.000244141 31.4756 0.000244141 31.9935C0.000244141 32.5113 0.121888 33.022 0.355376 33.4844L4.19377 40.1321L15.3237 20.8518C15.5111 20.5648 15.7636 20.326 16.0605 20.1547C16.3575 19.9834 16.6906 19.8844 17.033 19.8659H42.3087C42.6511 19.8844 42.9841 19.9834 43.2811 20.1547C43.5781 20.326 43.8306 20.5648 44.0181 20.8518L56.6571 42.7435C56.812 43.049 56.8927 43.3868 56.8927 43.7294C56.8927 44.0719 56.812 44.4097 56.6571 44.7154L45.5294 63.987H53.1868C53.704 63.9581 54.2073 63.808 54.6562 63.5487C55.1048 63.2897 55.4865 62.9287 55.77 62.4952L72.5187 33.4844C72.7521 33.022 72.8738 32.5113 72.8738 31.9935C72.8738 31.4756 72.7521 30.9649 72.5187 30.5028H72.5122Z" fill="url(#paint0_linear_1103_62)"/>
</g>
<defs>
<linearGradient id="paint0_linear_1103_62" x1="18.2191" y1="63.5479" x2="54.6571" y2="0.439174" gradientUnits="userSpaceOnUse">
<stop stop-color="#FFDC00"/>
<stop offset="0.33" stop-color="#E58E2F"/>
<stop offset="0.67" stop-color="#DB2D72"/>
<stop offset="1" stop-color="#FF00FF"/>
</linearGradient>
</defs>
</svg>
