<svg width="74" height="64" viewBox="0 0 74 64" fill="none" xmlns="http://www.w3.org/2000/svg">
<path fill-rule="evenodd" clip-rule="evenodd" d="M13.4709 0.314331L0.0561886 28.4919C0.00514166 28.5967 -0.0110348 28.7152 0.0100249 28.8297C0.0310846 28.9445 0.0882754 29.0493 0.173234 29.1291L36.4032 63.8462C36.5061 63.9449 36.6432 64 36.7857 64C36.9282 64 37.0654 63.9449 37.1682 63.8462L73.3983 29.1313C73.4831 29.0514 73.5404 28.9467 73.5614 28.8319C73.5825 28.7173 73.5664 28.5989 73.5152 28.4941L60.1006 0.316498C60.0572 0.221865 59.9876 0.1417 59.8999 0.0855823C59.8123 0.0294643 59.7105 -0.000232138 59.6064 4.19465e-05H13.9694C13.8649 -0.00125891 13.7622 0.0277222 13.6737 0.0834894C13.5853 0.139257 13.5148 0.219427 13.4709 0.314331Z" fill="#50AF95"/>
<path fill-rule="evenodd" clip-rule="evenodd" d="M41.4787 31.4142C41.2184 31.4338 39.8733 31.514 36.8729 31.514C34.4864 31.514 32.792 31.4424 32.1976 31.4142C22.9751 31.0085 16.0913 29.4031 16.0913 27.4809C16.0913 25.5588 22.9751 23.9555 32.1976 23.5433V29.8153C32.8007 29.8587 34.5276 29.9607 36.9141 29.9607C39.7778 29.9607 41.2118 29.8414 41.47 29.8175V23.5477C50.673 23.9577 57.5416 25.5631 57.5416 27.4809C57.5416 29.3988 50.6752 31.0042 41.47 31.4121L41.4787 31.4142ZM41.4787 22.899V17.2865H54.3221V8.72791H19.3542V17.2865H32.1954V22.8968C21.758 23.3763 13.9088 25.4438 13.9088 27.9214C13.9088 30.3989 21.758 32.4643 32.1954 32.9459V50.931H41.4765V32.9394C51.8901 32.4599 59.7263 30.3946 59.7263 27.9192C59.7263 25.4438 51.8966 23.3784 41.4765 22.8968L41.4787 22.899Z" fill="white"/>
</svg>
