<svg width="70" height="64" viewBox="0 0 70 64" fill="none" xmlns="http://www.w3.org/2000/svg">
<path d="M19.0752 31.7707C18.9284 34.3208 20.8914 36.5039 23.4415 36.6507C23.5332 36.6507 23.625 36.6507 23.7166 36.6507C26.2852 36.6507 28.3582 34.5777 28.3399 32.0093C28.3399 29.4407 26.2667 27.3677 23.6983 27.386C21.24 27.386 19.2036 29.3122 19.0752 31.7707Z" fill="#0033AD"/>
<path d="M1.79323 30.5781C0.967655 30.523 0.252159 31.1651 0.215467 31.9907C0.178775 32.8162 0.802539 33.5318 1.62811 33.5685C2.45367 33.6234 3.15084 32.9815 3.20588 32.1559C3.26092 31.3302 2.6188 30.6331 1.79323 30.5781Z" fill="#0033AD"/>
<path d="M18.7814 4.87536C19.5153 4.50845 19.8088 3.59113 19.4419 2.85731C19.075 2.12346 18.1577 1.82992 17.4238 2.19684C16.69 2.56377 16.3964 3.46273 16.7634 4.19657C17.1303 4.94875 18.0292 5.26063 18.7814 4.87536C18.7631 4.87536 18.7814 4.87536 18.7814 4.87536Z" fill="#0033AD"/>
<path d="M23.4785 13.076C24.6158 12.5073 25.0746 11.113 24.5057 9.9755C23.937 8.83805 22.5428 8.3794 21.4053 8.94814C20.2679 9.51686 19.8092 10.9112 20.3779 12.0486C20.9467 13.1861 22.3409 13.6447 23.4785 13.076Z" fill="#0033AD"/>
<path d="M7.66409 18.7083C8.5447 19.277 9.71885 19.0385 10.3059 18.1579C10.8746 17.2773 10.6362 16.1031 9.75555 15.5161C8.87494 14.9473 7.70079 15.1858 7.11371 16.0664C6.52663 16.947 6.7835 18.1395 7.66409 18.7083Z" fill="#0033AD"/>
<path d="M10.4711 29.7526C9.18687 29.6791 8.10445 30.6514 8.03105 31.9357C7.95768 33.2198 8.93001 34.3024 10.2142 34.3756C11.4985 34.4491 12.5809 33.4766 12.6543 32.1925C12.7276 30.9265 11.7553 29.8258 10.4711 29.7526Z" fill="#0033AD"/>
<path d="M7.92095 45.2917C6.9853 45.7686 6.60003 46.9062 7.07704 47.8601C7.55402 48.7958 8.69147 49.1811 9.64548 48.704C10.5811 48.2271 10.9664 47.0895 10.4894 46.1356C10.0124 45.1999 8.8566 44.8146 7.92095 45.2917Z" fill="#0033AD"/>
<path d="M16.9104 24.9643C18.1762 25.7898 19.8641 25.4412 20.6713 24.1754C21.4969 22.9094 21.1483 21.2217 19.8824 20.4144C18.6165 19.5889 16.9287 19.9374 16.1215 21.2033C15.2959 22.4509 15.6445 24.1388 16.9104 24.9643Z" fill="#0033AD"/>
<path d="M45.4386 12.8925C46.5027 13.5897 47.952 13.2961 48.6491 12.2321C49.3462 11.168 49.0527 9.71868 47.9887 9.02151C46.9246 8.32436 45.4752 8.6179 44.7781 9.68198C44.0627 10.7644 44.3562 12.1954 45.4386 12.8925Z" fill="#0033AD"/>
<path d="M50.1716 4.72861C50.8687 5.18726 51.7861 4.98545 52.2449 4.2883C52.7034 3.59116 52.5017 2.67385 51.8044 2.2152C51.1073 1.75654 50.19 1.95835 49.7314 2.63715C49.2912 3.3343 49.4929 4.26995 50.1716 4.72861Z" fill="#0033AD"/>
<path d="M45.7868 27.3494C43.2367 27.2026 41.0353 29.1655 40.9068 31.7156C40.7601 34.2657 42.7232 36.4674 45.2733 36.5958C45.3649 36.5958 45.4567 36.5958 45.5299 36.5958C48.0802 36.5958 50.1532 34.5226 50.1532 31.9542C50.1715 29.5142 48.2453 27.4778 45.7868 27.3494Z" fill="#0033AD"/>
<path d="M25.0008 24.6339C25.7897 26.1934 27.3858 27.184 29.147 27.184C31.6971 27.184 33.7701 25.111 33.7701 22.5426C33.7701 21.827 33.605 21.1116 33.2749 20.4511C32.119 18.1579 29.3304 17.2405 27.0555 18.3964C24.7623 19.5705 23.8449 22.359 25.0008 24.6339Z" fill="#0033AD"/>
<path d="M61.3077 18.7082C62.2434 18.2313 62.6103 17.0755 62.1335 16.1398C61.6564 15.2042 60.5005 14.8372 59.5648 15.3142C58.6292 15.7912 58.2624 16.9287 58.721 17.8643C59.2164 18.8 60.3537 19.1853 61.3077 18.7082Z" fill="#0033AD"/>
<path d="M49.5663 20.176C48.2271 20.8548 47.6767 22.4875 48.3555 23.8267C49.0343 25.166 50.667 25.7163 52.0063 25.0376C53.3456 24.3588 53.8959 22.726 53.2171 21.3868C52.5383 20.0475 50.9056 19.5155 49.5663 20.176Z" fill="#0033AD"/>
<path d="M34.4308 4.03146C35.4764 4.08649 36.3754 3.27927 36.4489 2.23355C36.5221 1.18782 35.6966 0.288865 34.6508 0.215481C33.6051 0.160443 32.7063 0.949324 32.6328 1.99505C32.5779 3.05911 33.3851 3.95808 34.4308 4.03146Z" fill="#0033AD"/>
<path d="M34.4125 16.0114C35.9171 16.1031 37.2012 14.9473 37.2747 13.443C37.3662 11.9386 36.2106 10.6543 34.706 10.581C33.2017 10.4892 31.9176 11.6451 31.8441 13.1494C31.7709 14.6538 32.9082 15.938 34.4125 16.0114Z" fill="#0033AD"/>
<path d="M19.6623 43.8241C21.0015 43.1453 21.5518 41.5126 20.8731 40.1733C20.1943 38.834 18.5615 38.2835 17.2222 38.9625C15.883 39.6413 15.3326 41.274 16.0114 42.6133C16.6902 43.9525 18.323 44.5029 19.6623 43.8241Z" fill="#0033AD"/>
<path d="M36.1736 19.9924C34.7793 22.139 35.3663 25.0009 37.5128 26.3951C39.6595 27.7895 42.5214 27.2026 43.9156 25.0559C45.31 22.9094 44.7228 20.0475 42.5764 18.6532C41.8243 18.1578 40.9436 17.901 40.0446 17.901C38.4853 17.901 37.0359 18.6899 36.1736 19.9924Z" fill="#0033AD"/>
<path d="M44.2278 39.3659C43.0719 37.0727 40.2833 36.1556 38.0084 37.3112C35.7152 38.4671 34.7978 41.2557 35.9537 43.5306C37.1094 45.8239 39.898 46.7412 42.1729 45.5853C44.4478 44.4478 45.3835 41.696 44.2461 39.4027C44.2461 39.3844 44.2461 39.3844 44.2278 39.3659Z" fill="#0033AD"/>
<path d="M52.3183 39.0356C51.0525 38.2101 49.3646 38.5587 48.5573 39.8245C47.7318 41.0903 48.0805 42.7782 49.3462 43.5854C50.612 44.411 52.2999 44.0625 53.1072 42.7965C53.9327 41.5491 53.5842 39.8611 52.3183 39.0356Z" fill="#0033AD"/>
<path d="M61.1977 32.0824C61.271 30.7981 60.2987 29.7157 59.0144 29.6425C57.7303 29.569 56.6479 30.5415 56.5744 31.8256C56.5009 33.1099 57.4734 34.1923 58.7575 34.2655C60.0235 34.339 61.1242 33.3484 61.1977 32.0824Z" fill="#0033AD"/>
<path d="M67.6003 30.4315C66.7748 30.3764 66.0594 31.0185 66.0227 31.8441C65.9859 32.6696 66.6097 33.3852 67.4353 33.4219C68.2608 33.4768 68.9579 32.8349 69.0131 32.0091C69.0497 31.1836 68.4259 30.4865 67.6003 30.4315Z" fill="#0033AD"/>
<path d="M61.5645 45.2917C60.684 44.7231 59.5098 44.9614 58.9226 45.8421C58.3539 46.7226 58.5925 47.8968 59.4729 48.484C60.3536 49.0527 61.5278 48.8141 62.1148 47.9336C62.702 47.0529 62.4452 45.8604 61.5645 45.2917Z" fill="#0033AD"/>
<path d="M19.0385 59.2713C18.3413 58.8128 17.424 59.0145 16.9654 59.6932C16.5067 60.3906 16.7085 61.3077 17.3873 61.7665C18.0845 62.225 19.0018 62.0233 19.4604 61.3445C19.9374 60.6657 19.7356 59.7301 19.0385 59.2713Z" fill="#0033AD"/>
<path d="M50.4467 59.1246C49.713 59.4916 49.4193 60.409 49.7863 61.1427C50.1532 61.8767 51.0706 62.1701 51.8043 61.8032C52.5383 61.4362 52.8317 60.5374 52.4648 59.8034C52.0978 59.0512 51.199 58.7393 50.4467 59.1246C50.465 59.1246 50.4467 59.1246 50.4467 59.1246Z" fill="#0033AD"/>
<path d="M33.0547 44.0075C34.4492 41.861 33.862 38.9991 31.7155 37.5864C29.569 36.1922 26.7071 36.7792 25.2944 38.9257C23.8818 41.0721 24.4871 43.9342 26.6336 45.3468C27.3859 45.8422 28.2664 46.099 29.1654 46.099C30.7432 46.1174 32.1926 45.3285 33.0547 44.0075Z" fill="#0033AD"/>
<path d="M23.7901 51.1074C22.7261 50.4103 21.2767 50.7038 20.5796 51.7678C19.8824 52.8319 20.1759 54.2813 21.24 54.9784C22.3041 55.6755 23.7535 55.382 24.4506 54.3179C25.166 53.2538 24.8725 51.8045 23.7901 51.1074Z" fill="#0033AD"/>
<path d="M34.5958 59.9683C33.55 59.9134 32.651 60.7206 32.5777 61.7664C32.5043 62.8121 33.3298 63.7109 34.3756 63.7844C35.4213 63.8394 36.3203 63.0505 36.3936 62.0049C36.4488 60.9408 35.6415 60.0418 34.5958 59.9683Z" fill="#0033AD"/>
<path d="M34.6145 47.9885C33.1099 47.8967 31.8258 49.0526 31.7523 50.5569C31.6608 52.0613 32.8164 53.3456 34.321 53.4188C35.8253 53.4923 37.1094 52.3547 37.1829 50.8504C37.2747 49.3644 36.1188 48.0618 34.6145 47.9885Z" fill="#0033AD"/>
<path d="M45.7502 50.9238C44.6129 51.5108 44.1541 52.9053 44.7413 54.0426C45.3283 55.1802 46.7225 55.6387 47.8601 55.0517C48.9974 54.4828 49.4562 53.0886 48.8875 51.9511C48.3003 50.8137 46.9061 50.3366 45.7502 50.9238Z" fill="#0033AD"/>
</svg>
