<svg width="64" height="64" viewBox="0 0 64 64" fill="none" xmlns="http://www.w3.org/2000/svg">
<path d="M62.9842 39.7297C58.7243 56.8149 41.4179 67.2126 24.3289 62.952C7.24698 58.6928 -3.15185 41.3872 1.10988 24.3034C5.36789 7.21646 22.6744 -3.18196 39.758 1.07742C56.8458 5.33681 67.2441 22.6441 62.9838 39.7302L62.984 39.7297H62.9842Z" fill="#F7931A"/>
<path d="M46.1654 27.4169C46.8002 23.1728 43.5689 20.8913 39.1498 19.3694L40.5833 13.6204L37.0835 12.7484L35.688 18.346C34.7678 18.1166 33.8229 17.9004 32.8837 17.686L34.2893 12.0514L30.7916 11.1794L29.3572 16.9265C28.5957 16.7532 27.848 16.5819 27.1224 16.4013L27.1265 16.3833L22.2999 15.1781L21.3688 18.9159C21.3688 18.9159 23.9654 19.5111 23.9107 19.5477C25.328 19.9014 25.5844 20.8396 25.5418 21.5831L23.909 28.1325C24.0065 28.1574 24.133 28.1933 24.2726 28.2493C24.1559 28.2203 24.0318 28.1888 23.9027 28.1578L21.614 37.3328C21.4408 37.7633 21.0011 38.4095 20.0102 38.1641C20.0453 38.2149 17.4664 37.5293 17.4664 37.5293L15.7287 41.5354L20.2833 42.6705C21.1307 42.883 21.9611 43.1053 22.7788 43.3144L21.3304 49.1293L24.8264 50.0013L26.2608 44.2482C27.2158 44.5075 28.1425 44.7464 29.0499 44.9719L27.6203 50.698L31.1206 51.57L32.5689 45.7661C38.5371 46.8954 43.0246 46.44 44.9135 41.0424C46.4357 36.6967 44.8378 34.1901 41.6979 32.5555C43.9849 32.0281 45.7075 30.5241 46.1667 27.4173L46.1656 27.4164L46.1654 27.4169ZM38.1689 38.629C37.0871 42.9747 29.7693 40.6255 27.397 40.0363L29.3189 32.3325C31.6912 32.9248 39.299 34.0967 38.1689 38.629ZM39.2512 27.3537C38.2644 31.3068 32.1738 29.2984 30.1981 28.8061L31.9405 21.819C33.9163 22.3116 40.2791 23.2307 39.2515 27.3537H39.2512Z" fill="white"/>
</svg>
