<svg width="182" height="40" viewBox="0 0 182 40" fill="none" xmlns="http://www.w3.org/2000/svg">
<g id="logo">
<g id="logotype">
<path d="M74.0889 16.6817C73.5075 11.8569 69.8557 9.0824 65.0207 9.0824C59.5023 9.0824 55.2895 12.979 55.2895 19.8132C55.2895 26.6271 59.4309 30.5441 65.0207 30.5441C70.3759 30.5441 73.6095 26.9841 74.0889 23.1386L69.6211 23.1182C69.2029 25.3521 67.4484 26.6373 65.0921 26.6373C61.9198 26.6373 59.7675 24.281 59.7675 19.8132C59.7675 15.4679 61.8892 12.9892 65.1227 12.9892C67.5402 12.9892 69.2845 14.3866 69.6211 16.6817H74.0889Z" fill="#081946"/>
<path d="M76.0255 30.2585H80.3709V21.3943C80.3709 19.4664 81.7786 18.1404 83.6963 18.1404C84.2981 18.1404 85.1243 18.2424 85.5323 18.375V14.5192C85.1447 14.4274 84.6041 14.3662 84.1655 14.3662C82.411 14.3662 80.9727 15.3863 80.4015 17.3243H80.2383V14.5906H76.0255V30.2585Z" fill="#081946"/>
<path d="M89.7896 36.1339C93.0231 36.1339 94.7368 34.4815 95.6242 31.9518L101.714 14.611L97.1135 14.5906L93.8392 26.0967H93.676L90.4322 14.5906H85.8624L91.4829 30.7073L91.2278 31.3703C90.6566 32.8392 89.5652 32.9106 88.0351 32.4414L87.0559 35.6851C87.6781 35.9503 88.6879 36.1339 89.7896 36.1339Z" fill="#081946"/>
<path d="M102.789 36.1339H107.134V27.7492H107.267C107.868 29.0548 109.184 30.5135 111.714 30.5135C115.284 30.5135 118.069 27.688 118.069 22.445C118.069 17.0591 115.162 14.3866 111.724 14.3866C109.103 14.3866 107.848 15.9473 107.267 17.2223H107.073V14.5906H102.789V36.1339ZM107.042 22.4246C107.042 19.6296 108.225 17.8446 110.337 17.8446C112.489 17.8446 113.632 19.7112 113.632 22.4246C113.632 25.1583 112.469 27.0556 110.337 27.0556C108.246 27.0556 107.042 25.2195 107.042 22.4246Z" fill="#081946"/>
<path d="M128.151 14.5906H125.203V10.8369H120.857V14.5906H118.715V17.8548H120.857V26.0151C120.837 29.0854 122.928 30.6053 126.08 30.4727C127.202 30.4319 127.998 30.2075 128.436 30.0647L127.753 26.8311C127.539 26.8719 127.079 26.9739 126.671 26.9739C125.804 26.9739 125.203 26.6475 125.203 25.4439V17.8548H128.151V14.5906Z" fill="#081946"/>
<path d="M136.743 30.5645C141.496 30.5645 144.454 27.3106 144.454 22.4858C144.454 17.6304 141.496 14.3866 136.743 14.3866C131.99 14.3866 129.031 17.6304 129.031 22.4858C129.031 27.3106 131.99 30.5645 136.743 30.5645ZM136.763 27.1984C134.57 27.1984 133.448 25.1889 133.448 22.4552C133.448 19.7214 134.57 17.7018 136.763 17.7018C138.916 17.7018 140.038 19.7214 140.038 22.4552C140.038 25.1889 138.916 27.1984 136.763 27.1984Z" fill="#081946"/>
<path d="M165.41 19.8132C165.41 12.979 161.166 9.0824 155.628 9.0824C150.058 9.0824 145.845 12.979 145.845 19.8132C145.845 26.6169 150.058 30.5441 155.628 30.5441C156.933 30.5441 158.168 30.3299 159.29 29.9015L160.973 31.9722H165.094L162.105 28.2184C164.145 26.3925 165.41 23.5364 165.41 19.8132ZM154.098 22.9958L156.77 26.5251C156.413 26.5965 156.025 26.6373 155.628 26.6373C152.415 26.6373 150.323 24.2402 150.323 19.8132C150.323 15.3863 152.415 12.9892 155.628 12.9892C158.831 12.9892 160.932 15.3863 160.932 19.8132C160.932 22.0879 160.371 23.8322 159.402 24.9849L157.851 22.9958H154.098Z" fill="#081946"/>
<path d="M174.53 30.5645C178.702 30.5645 181.324 28.1164 181.528 24.5156H177.427C177.172 26.1885 176.07 27.127 174.581 27.127C172.551 27.127 171.235 25.4235 171.235 22.4246C171.235 19.4664 172.561 17.7732 174.581 17.7732C176.172 17.7732 177.192 18.8238 177.427 20.3845H181.528C181.344 16.7633 178.6 14.3866 174.51 14.3866C169.756 14.3866 166.819 17.6814 166.819 22.4858C166.819 27.2494 169.705 30.5645 174.53 30.5645Z" fill="#081946"/>
</g>
<path id="Symbole" fill-rule="evenodd" clip-rule="evenodd" d="M19.9872 39.4914C30.7521 39.4914 39.4788 30.7648 39.4788 19.9999C39.4788 9.23497 30.7521 0.508301 19.9872 0.508301C9.22234 0.508301 0.495667 9.23497 0.495667 19.9999C0.495667 30.7648 9.22234 39.4914 19.9872 39.4914ZM30.7267 21.3178C30.2215 19.1681 28.2005 17.6507 25.6743 17.6507C22.7692 17.6507 20.4956 19.8004 20.4956 22.4559C20.4956 23.7204 21.0009 24.7321 21.7587 25.6172C16.2011 25.4908 11.7803 21.0649 11.7803 15.6274C11.7803 10.0635 16.4537 5.63759 22.1377 5.63759C25.6743 5.63759 28.8321 7.15507 31.8635 10.5693C35.5705 15.1909 35.8342 20.7564 34.954 23.9594C34.0738 27.1624 30.726 31.6298 28.0019 32.3103C28.2819 31.657 28.5962 30.9971 28.9138 30.3303C30.2806 27.4606 31.7084 24.4628 30.7267 21.3178Z" fill="#2424BF"/>
</g>
</svg>
